HIERARCHY
ROOT Pelvis
{
	OFFSET 0.000000 0.000000 0.000000
	CHANNELS 6 Xposition Yposition Zposition Xrotation Yrotation Zrotation
	JOINT LeftUpLeg_virtual
	{
		OFFSET 0.000000 0.000000 0.000000
		CHANNELS 3 Xrotation Yrotation Zrotation
		JOINT LeftUpLeg
		{
			OFFSET 18.735201 -5.666702 -4.541200
			CHANNELS 3 Xrotation Yrotation Zrotation
			JOINT LeftLeg
			{
				OFFSET -0.021200 -31.938179 0.493100
				CHANNELS 3 Xrotation Yrotation Zrotation
				JOINT LeftFoot
				{
					OFFSET 0.021200 -31.938179 -4.336299
					CHANNELS 3 Xrotation Yrotation Zrotation
					JOINT LeftToeBase
					{
						OFFSET 0.943001 -26.722000 15.023500
						CHANNELS 3 Xrotation Yrotation Zrotation
						End Site
						{
							OFFSET 0 0 0
						}
					}
				}
			}
		}
	}
	JOINT RightUpLeg_virtual
	{
		OFFSET 0.000000 0.000000 0.000000
		CHANNELS 3 Xrotation Yrotation Zrotation
		JOINT RightUpLeg
		{
			OFFSET -18.735201 -5.666702 -4.541200
			CHANNELS 3 Xrotation Yrotation Zrotation
			JOINT RightLeg
			{
				OFFSET 0.018946 -31.938133 0.493100
				CHANNELS 3 Xrotation Yrotation Zrotation
				JOINT RightFoot
				{
					OFFSET -0.018946 -31.938126 -4.336299
					CHANNELS 3 Xrotation Yrotation Zrotation
					JOINT RightToeBase
					{
						OFFSET -0.943001 -26.722004 15.023500
						CHANNELS 3 Xrotation Yrotation Zrotation
						End Site
						{
							OFFSET 0 0 0
						}
					}
				}
			}
		}
	}
	JOINT Hips_virtual
	{
		OFFSET 0.000000 0.000000 0.000000
		CHANNELS 3 Xrotation Yrotation Zrotation
		JOINT Hips
		{
			OFFSET -0.000000 -0.000000 -0.000000
			CHANNELS 3 Xrotation Yrotation Zrotation
			JOINT Spine
			{
				OFFSET 0.000000 10.199997 -0.299500
				CHANNELS 3 Xrotation Yrotation Zrotation
				JOINT Spine1
				{
					OFFSET 0.000000 11.900002 -1.516600
					CHANNELS 3 Xrotation Yrotation Zrotation
					JOINT Spine2
					{
						OFFSET 0.000000 13.600006 -2.842500
						CHANNELS 3 Xrotation Yrotation Zrotation
						JOINT Neck_virtual
						{
							OFFSET 0.000000 0.000000 0.000000
							CHANNELS 3 Xrotation Yrotation Zrotation
							JOINT Neck
							{
								OFFSET 0.000000 9.624100 -2.890100
								CHANNELS 3 Xrotation Yrotation Zrotation
								JOINT Head
								{
									OFFSET 0.000000 14.068802 -1.351900
									CHANNELS 3 Xrotation Yrotation Zrotation
									End Site
									{
										OFFSET 0 0 0
									}
								}
							}
						}
						JOINT LeftShoulder_virtual
						{
							OFFSET 0.000000 0.000000 0.000000
							CHANNELS 3 Xrotation Yrotation Zrotation
							JOINT LeftShoulder
							{
								OFFSET 15.263000 10.923401 -0.547700
								CHANNELS 3 Xrotation Yrotation Zrotation
								JOINT LeftArm
								{
									OFFSET 25.438599 -2.830597 -13.032500
									CHANNELS 3 Xrotation Yrotation Zrotation
									JOINT LeftForeArm
									{
										OFFSET 29.960503 0.000000 0.000000
										CHANNELS 3 Xrotation Yrotation Zrotation
										JOINT LeftHand
										{
											OFFSET 27.849251 0.000000 0.000000
											CHANNELS 3 Xrotation Yrotation Zrotation
											End Site
											{
												OFFSET 0 0 0
											}
										}
									}
								}
							}
						}
						JOINT RightShoulder_virtual
						{
							OFFSET 0.000000 0.000000 0.000000
							CHANNELS 3 Xrotation Yrotation Zrotation
							JOINT RightShoulder
							{
								OFFSET -15.263000 10.923401 -0.547700
								CHANNELS 3 Xrotation Yrotation Zrotation
								JOINT RightArm
								{
									OFFSET -25.438599 -2.830597 -13.032500
									CHANNELS 3 Xrotation Yrotation Zrotation
									JOINT RightForeArm
									{
										OFFSET -29.960503 0.000000 0.000000
										CHANNELS 3 Xrotation Yrotation Zrotation
										JOINT RightHand
										{
											OFFSET -27.849251 0.000000 0.000000
											CHANNELS 3 Xrotation Yrotation Zrotation
											End Site
											{
												OFFSET 0 0 0
											}
										}
									}
								}
							}
						}
					}
				}
			}
		}
	}
}
MOTION
Frames: 8
Frame Time: 0.03333333
-4.057473 89.237480 -3.366177 0.000000 0.000000 0.000000 -1.958318 -2.159302 2.901789 -23.659584 6.495376 0.519759 34.757330 6.982392 -0.299474 -10.696056 3.032440 -5.090011 0.000000 0.000000 0.000000 -1.574164 -0.723137 2.690285 -11.556074 -18.309260 -17.227011 31.821564 0.756791 -5.373007 -20.457277 -4.166549 18.682705 0.000000 0.000000 0.000000 -2.054628 -1.584296 3.066452 -0.423426 0.565833 -0.784957 8.566402 1.388204 -4.960917 1.495295 1.177538 -0.964319 0.000000 0.000000 0.000000 0.548268 1.049806 -0.920526 -2.744170 -0.197740 0.753332 0.000000 0.000000 0.000000 1.132186 1.284979 -1.010779 0.120719 3.571441 -2.029827 -17.226359 -6.789285 -66.613742 2.493807 -35.346045 -1.359664 0.000000 0.000000 0.000000 1.372011 1.196095 -0.720845 5.205980 13.649072 -8.087466 -3.606364 0.101095 71.345301 1.532723 34.562130 0.198464 0.000000 0.000000 0.000000 
-4.143814 89.298790 -3.405354 0.000000 0.000000 0.000000 -1.967340 -2.218683 2.853157 -23.556810 6.467962 0.704709 34.421500 6.981392 -0.316983 -10.508125 3.073160 -5.128559 0.000000 0.000000 0.000000 -1.562216 -0.865359 2.668955 -11.435085 -18.128063 -17.042244 31.461883 0.578498 -5.422033 -20.682392 -4.058226 18.416493 0.000000 0.000000 0.000000 -2.060860 -1.767515 3.035323 -0.409574 0.478800 -0.712253 8.602098 1.298174 -4.871456 1.537420 1.102374 -0.924522 0.000000 0.000000 0.000000 0.644669 0.990594 -0.876683 -2.728571 -0.186388 0.728283 0.000000 0.000000 0.000000 1.179610 1.204756 -0.984041 0.118786 3.383529 -1.947509 -17.393633 -7.746097 -66.559989 2.486299 -35.845878 -1.366508 0.000000 0.000000 0.000000 1.389553 1.138547 -0.683601 5.199814 13.772720 -8.078500 -3.117418 -0.122332 71.265873 1.552358 35.066133 0.072558 0.000000 0.000000 0.000000 
-4.310499 89.312172 -3.663429 0.000000 0.000000 0.000000 -1.868127 -2.312892 2.762775 -23.704962 6.445790 1.288291 34.175377 7.159318 -0.511688 -10.402172 3.413269 -4.949301 0.000000 0.000000 0.000000 -1.436658 -1.031340 2.616714 -11.473319 -17.568835 -16.610803 31.040064 0.303625 -5.538059 -20.904031 -3.867365 18.172220 0.000000 0.000000 0.000000 -1.932475 -2.082270 2.953002 -0.347199 0.409574 -0.691879 8.787971 1.133754 -4.739108 1.610659 1.021772 -0.849435 0.000000 0.000000 0.000000 0.772057 0.907366 -0.795136 -2.736281 -0.185635 0.711837 0.000000 0.000000 0.000000 1.290127 1.112052 -0.912226 0.121921 3.210705 -1.614207 -17.625206 -8.940675 -66.615675 2.525204 -35.790150 -1.311892 0.000000 0.000000 0.000000 1.462774 1.057413 -0.611806 5.221197 14.086681 -8.277453 -2.322652 -0.465700 71.187674 1.634625 35.905089 -0.167338 0.000000 0.000000 0.000000 
-4.519378 89.271248 -4.069149 0.000000 0.000000 0.000000 -1.597138 -2.543270 2.628343 -24.128092 6.510773 2.189120 34.157349 7.487896 -0.916825 -10.525673 4.011577 -4.580676 0.000000 0.000000 0.000000 -1.194418 -1.307240 2.526042 -11.921730 -16.641346 -16.138962 30.982991 0.061463 -5.632087 -20.795877 -3.464709 18.144493 0.000000 0.000000 0.000000 -1.632878 -2.545780 2.810766 -0.268124 0.399196 -0.762298 9.160460 0.932062 -4.626070 1.686965 0.956985 -0.768825 0.000000 0.000000 0.000000 0.900900 0.828562 -0.703432 -2.758252 -0.191916 0.700586 0.000000 0.000000 0.000000 1.420235 1.030674 -0.821638 0.126440 3.109911 -1.085343 -17.880289 -9.965974 -66.777079 2.616289 -35.410347 -1.162311 0.000000 0.000000 0.000000 1.590245 0.980951 -0.534353 5.261127 14.535998 -8.626510 -1.427336 -0.920436 71.156098 1.762705 36.782590 -0.506138 0.000000 0.000000 0.000000 
-4.711497 89.195801 -4.579678 0.000000 0.000000 0.000000 -1.152143 -2.981567 2.460866 -24.797480 6.721921 3.306892 34.428982 7.883012 -1.532239 -10.927778 4.777010 -4.112073 0.000000 0.000000 0.000000 -0.825781 -1.787031 2.391790 -12.975356 -15.515140 -15.824146 31.552370 -0.134190 -5.609511 -20.421475 -2.890045 18.303761 0.000000 0.000000 0.000000 -1.157249 -3.187489 2.608790 -0.241596 0.353004 -0.775849 9.750461 0.711944 -4.551440 1.757162 0.926159 -0.705921 0.000000 0.000000 0.000000 1.031641 0.790192 -0.623345 -2.765157 -0.204783 0.695711 0.000000 0.000000 0.000000 1.546524 0.978474 -0.743317 0.129156 3.092758 -0.481380 -18.219733 -10.522897 -66.963878 2.721021 -34.910415 -0.906937 0.000000 0.000000 0.000000 1.767548 0.941829 -0.484615 5.328042 14.979489 -9.131428 -0.594599 -1.418754 71.108007 1.945490 37.510129 -0.933068 0.000000 0.000000 0.000000 
-4.854122 89.136589 -5.227051 0.000000 0.000000 0.000000 -0.562189 -3.712750 2.259094 -25.671382 7.078864 4.523559 34.907277 8.246855 -2.317412 -11.530430 5.602289 -3.635128 0.000000 0.000000 0.000000 -0.343443 -2.496138 2.198583 -14.521213 -14.402924 -15.725425 32.465873 -0.302794 -5.409418 -19.989744 -2.242768 18.521352 0.000000 0.000000 0.000000 -0.528992 -4.112329 2.364727 -0.230402 0.249654 -0.688101 10.598640 0.482722 -4.515263 1.849812 0.919040 -0.673650 0.000000 0.000000 0.000000 1.161952 0.787969 -0.572414 -2.735994 -0.214638 0.695522 0.000000 0.000000 0.000000 1.669958 0.969404 -0.695922 0.146569 3.158569 0.117826 -18.587057 -10.440175 -67.032330 2.793785 -34.529868 -0.569380 0.000000 0.000000 0.000000 1.996589 0.943734 -0.478305 5.406271 15.290661 -9.705118 0.208933 -1.923365 71.086553 2.178388 38.125986 -1.421098 0.000000 0.000000 0.000000 
-4.987230 89.092041 -5.939899 0.000000 0.000000 0.000000 0.143283 -4.757214 2.054160 -26.767942 7.531157 5.787469 35.532915 8.498503 -3.202734 -12.020596 6.447988 -3.173935 0.000000 0.000000 0.000000 0.248142 -3.500284 1.954405 -16.320317 -13.366708 -15.796088 33.390275 -0.334525 -5.042463 -19.710866 -1.530182 18.849285 0.000000 0.000000 0.000000 0.165731 -5.235463 2.098786 -0.248440 0.141346 -0.587489 11.696319 0.241529 -4.445132 1.999102 0.911893 -0.667321 0.000000 0.000000 0.000000 1.314977 0.798386 -0.550587 -2.664139 -0.215797 0.701590 0.000000 0.000000 0.000000 1.808787 0.974953 -0.687226 0.205148 3.284186 0.573770 -18.949583 -9.796757 -66.770003 2.790255 -34.274910 -0.203696 0.000000 0.000000 0.000000 2.247708 0.964124 -0.495596 5.497091 15.365018 -10.282178 0.962021 -2.353147 71.253968 2.434753 38.741120 -1.911308 0.000000 0.000000 0.000000 
-5.111312 89.079010 -6.732021 0.000000 0.000000 0.000000 0.912707 -6.017476 1.868204 -28.139464 7.997328 7.142243 36.267669 8.643321 -4.094240 -12.138369 7.346938 -2.599505 0.000000 0.000000 0.000000 0.922223 -4.788166 1.676845 -18.204413 -12.400552 -16.007289 34.109442 -0.086266 -4.578602 -19.325791 -0.665321 19.412424 0.000000 0.000000 0.000000 0.888844 -6.496916 1.849969 -0.319633 0.030934 -0.504982 13.018481 -0.022180 -4.288462 2.234940 0.886448 -0.673298 0.000000 0.000000 0.000000 1.525770 0.784572 -0.549547 -2.559058 -0.199240 0.714104 0.000000 0.000000 0.000000 1.986775 0.957354 -0.707755 0.289893 3.418787 0.810756 -19.230961 -8.757348 -65.968399 2.687605 -33.721276 0.115731 0.000000 0.000000 0.000000 2.501535 0.966016 -0.514992 5.585818 15.187055 -10.806619 1.705351 -2.799302 71.521438 2.690207 39.503683 -2.322149 0.000000 0.000000 0.000000 
